<?xml version="1.0" encoding="UTF-8"?>
<svg id="Calque_2" data-name="Calque 2" xmlns="http://www.w3.org/2000/svg" viewBox="0 0 235.59 369.74">
  <defs>
    <style>
      .cls-1 {
        fill: #eae8eb;
        stroke-width: 0px;
      }
    </style>
  </defs>
  <g id="Calque_1-2" data-name="Calque 1">
    <path class="cls-1" d="m117.79.75c.71,0,1.3.6,1.3,1.32v20.24l.41.07c1.72.31,3.37,1.19,4.65,2.46,1.71,1.71,2.65,3.96,2.65,6.36v49.72c0,3.85-2.46,7.28-6.11,8.51l-.34.11v72.53l.99-4.13c3.11-13.04,7.12-24.66,11.91-34.53,10.15-20.87,28.08-36.36,36.24-42.68-6.36,7.36-19.76,25.09-32.07,55.74-5.92,14.74-10.51,44.87-11.37,50.76l.98.2c9.15-34.31,24.38-64.4,41.78-82.53l.16-.16c.09-.09.18-.19.28-.27l.28-.25-.16-.34c-1.61-3.45-.89-7.55,1.8-10.2l35.34-34.99c1.69-1.68,3.94-2.6,6.33-2.6,1.83,0,3.58.54,5.07,1.56l.34.23.29-.29,14.08-13.94c.24-.24.56-.37.9-.37s.69.14.93.39c.25.25.39.59.39.93s-.14.68-.39.92l-14.06,13.93-.29.29.23.34c.97,1.46,1.5,3.24,1.5,5,0,2.43-.95,4.71-2.66,6.41l-35.33,34.99c-1.69,1.67-3.93,2.59-6.32,2.59-1.45,0-2.89-.35-4.17-1.02l-.29-.15-.26.21c-.08.07-.15.14-.22.22l-.08.08c-19.92,20.77-36.53,57.04-44.42,97.02l.96.27c5.92-16.09,12.08-29.68,18.3-40.38,15.5-26.62,38.95-46.33,49.63-54.47-9.41,9.51-29.6,31.62-44.66,60.09-5.2,9.84-10.82,23.27-16.72,39.92l.93.37c5.98-13.54,12.08-25.31,18.14-34.98,20.02-31.96,49.93-55.06,62.45-63.89-11.57,10.83-37.01,36.65-56.57,70.89-16.13,28.24-32.44,72.42-34.36,82.43-3.14,16.32-4.2,61.68-4.45,75.2v.18c0,.7.04,1.25.18,1.78.11.42.3.8.59,1.23.15.19.29.35.43.5l3.4,3.45,3.07,3.11c.02.05.03.1.06.14.01.03.03.05.05.09h0c0,.12-.02.16-.03.17l-.94,1.39-9.82,14.4v-11.73h.22c.58,0,1.16-.14,1.66-.39l.08-.04c.13-.06.28-.13.42-.23.16-.11.3-.22.43-.33h.3v-.31c.05-.06.09-.11.13-.16l.03-.04s.03-.03.04-.05c.05-.06.1-.11.14-.18l.02-.03v-.03s.02-.02.02-.02c.39-.63.6-1.34.6-2.07,0-1.03-.4-2.01-1.14-2.74-.73-.73-1.73-1.15-2.75-1.15h-2.52c-.93.02-1.82.39-2.5,1.04-.8.73-1.27,1.77-1.27,2.85,0,1.28.64,2.48,1.72,3.23.65.43,1.4.66,2.16.66h.35v11.72l-6.44-9.44-4.31-6.33s-.03-.08-.03-.14c0-.04,0-.07,0-.1.01-.04.04-.08.06-.11l6.52-6.61c.4-.41.69-.86.91-1.41.28-.79.3-1.62.29-2.71,0-.11,0-.22,0-.33s0-.23,0-.36c-.25-13.23-1.3-57.67-4.42-73.97-1.87-9.77-18.55-54.82-34.4-82.53-19.59-34.3-45.55-60.54-56.67-70.98,12.45,8.74,42.42,31.81,62.55,63.97,6.05,9.67,12.17,21.46,18.17,35.06l.93-.37c-5.9-16.67-11.53-30.12-16.75-40-15.09-28.52-35.33-50.67-44.71-60.14,10.79,8.18,34.1,27.76,49.68,54.53,6.2,10.66,12.36,24.22,18.3,40.32l.96-.27c-7.91-39.95-24.51-76.19-44.41-96.97-.07-.07-.16-.15-.22-.24l-.26-.32-.36.19c-1.28.68-2.73,1.03-4.19,1.03-2.39,0-4.63-.92-6.31-2.59l-35.33-34.99c-1.72-1.7-2.66-3.98-2.66-6.41,0-1.77.54-3.54,1.52-4.99l.23-.34-.29-.29L1.12,45.51c-.33-.3-.37-.7-.37-.91,0-.26.06-.62.37-.93.25-.25.58-.39.94-.39s.67.13.92.37l14.07,13.93.29.29.34-.23c1.49-1.02,3.24-1.55,5.06-1.55,2.4,0,4.66.93,6.34,2.61l35.33,34.98c2.68,2.65,3.41,6.74,1.82,10.19l-.15.33.26.25c.08.08.16.16.24.25.07.07.14.15.2.21,17.4,18.16,32.63,48.25,41.78,82.58h0c.06.4.08.61.08.62l.09.75.66-.38.06-.03.32-.18-.08-.36c-.04-.19-.08-.39-.14-.58-.87-5.93-5.52-36.24-11.39-50.84-12.29-30.65-25.69-48.38-32.06-55.74,8.15,6.32,26.07,21.8,36.23,42.68,4.84,9.97,8.85,21.6,11.92,34.57l.99,4.17v-72.6l-.34-.11c-3.66-1.23-6.11-4.65-6.11-8.51V31.2c0-4.29,3.06-8,7.28-8.82l.4-.08V2.07c0-.73.59-1.32,1.32-1.32m9.02,188.01l.1-.64s.03-.22.1-.64l-.97-.22c-.03.1-.06.2-.09.3-.03.1-.05.19-.08.29l-.13.42.4.18.08.03.59.26M117.79.25c-1.01,0-1.82.83-1.82,1.82v19.82c-4.38.85-7.69,4.71-7.69,9.31v49.72c0,4.15,2.7,7.72,6.45,8.99v67.96c-2.52-10.63-6.33-23.09-11.96-34.67-13.11-26.95-39.19-45.01-40.61-45.98,1.09,1.07,19.16,18.66,35.53,59.45,5.97,14.86,10.65,45.93,11.36,50.73-9-33.8-24.2-64.35-41.91-82.83-.16-.16-.3-.33-.46-.47,1.63-3.52.99-7.88-1.92-10.75L29.44,58.34c-1.84-1.83-4.27-2.75-6.7-2.75-1.87,0-3.74.55-5.34,1.64l-14.07-13.93c-.35-.34-.81-.51-1.27-.51-.47,0-.94.18-1.29.53-.35.35-.52.81-.52,1.28s.16.93.53,1.28l14.06,13.93c-1.07,1.59-1.6,3.45-1.6,5.27,0,2.46.95,4.92,2.81,6.76l35.33,34.99c1.83,1.82,4.25,2.74,6.66,2.74,1.52,0,3.05-.36,4.43-1.09.08.09.17.19.26.28,19.9,20.77,36.51,57.5,44.27,96.71-4.91-13.31-11.17-28.08-18.34-40.4-20.4-35.05-54.34-58-55.39-58.72,1.07.99,29.72,27.33,49.55,64.82,6.1,11.54,12.01,26.61,16.73,39.93-5.34-12.09-11.5-24.41-18.21-35.12C56.01,135.53,15.46,109.61,12.95,108.03c2.25,1.96,36.86,32.07,61.65,75.47,15.74,27.53,32.39,72.23,34.34,82.38,3.11,16.22,4.17,60.96,4.41,73.88,0,.24,0,.47,0,.68,0,1.02,0,1.82-.26,2.54-.16.42-.4.83-.79,1.23l-6.51,6.61c-.12.12-.2.29-.22.46,0,.04.02.06.02.1,0,.15.03.29.11.42l4.32,6.33,7.35,10.78v-13.84h-.85c-.71,0-1.34-.22-1.89-.58-.9-.62-1.5-1.65-1.5-2.81,0-.98.43-1.87,1.1-2.48.57-.54,1.34-.89,2.17-.9h2.51c.93,0,1.78.39,2.4,1s.99,1.46.99,2.39c0,.65-.19,1.28-.53,1.82,0,0-.02.03-.03.05-.05.08-.12.14-.17.21-.08.1-.16.22-.26.31,0,.02,0,.02,0,.02-.16.16-.32.28-.51.41-.14.09-.28.16-.43.22-.44.22-.94.34-1.45.34h-.72v13.85l10.74-15.73.94-1.39c.09-.13.11-.28.11-.45,0-.02.02-.03,0-.06,0-.09-.07-.17-.11-.26-.03-.07-.04-.16-.09-.22l-3.12-3.16-3.4-3.45c-.15-.15-.28-.3-.39-.45-.23-.34-.4-.68-.5-1.06-.13-.5-.16-1.03-.16-1.65v-.17c.21-11.23,1.21-58.36,4.44-75.1,2-10.41,18.64-54.85,34.3-82.27,24.79-43.4,59.41-73.52,61.65-75.47-2.5,1.58-43.05,27.5-68.39,67.95-6.7,10.69-12.85,22.99-18.17,35.04,4.71-13.3,10.61-28.33,16.69-39.85,19.84-37.48,48.49-63.83,49.56-64.82-1.06.72-34.98,23.66-55.4,58.72-7.17,12.33-13.42,27.11-18.34,40.46,7.75-39.23,24.36-75.98,44.29-96.77.09-.09.16-.18.26-.26,1.37.72,2.89,1.07,4.4,1.07,2.42,0,4.83-.91,6.67-2.74l35.33-34.99c1.86-1.84,2.81-4.3,2.81-6.76,0-1.83-.53-3.69-1.59-5.27l14.06-13.93c.35-.34.53-.82.53-1.28s-.18-.93-.53-1.28c-.35-.35-.82-.53-1.29-.53s-.91.17-1.25.51l-14.08,13.94c-1.6-1.1-3.48-1.65-5.35-1.65-2.42,0-4.84.92-6.69,2.75l-35.34,34.98c-2.91,2.88-3.55,7.25-1.9,10.77-.16.15-.3.3-.46.46-17.72,18.47-32.91,49-41.91,82.76.74-5.08,5.4-35.86,11.34-50.65,16.38-40.79,34.45-58.38,35.54-59.45-1.42.97-27.52,19.03-40.63,45.98-5.61,11.56-9.41,24.02-11.94,34.63v-67.92c3.74-1.27,6.45-4.83,6.45-8.99V31.2c0-2.62-1.07-4.99-2.79-6.71-1.31-1.31-3.02-2.26-4.91-2.6V2.07c0-.99-.81-1.82-1.8-1.82h0Zm8.63,187.79l-.08-.03c.06-.2.11-.4.17-.59-.06.41-.09.63-.09.63h0Zm-17.29,0s-.03-.22-.09-.63c.06.2.1.4.15.59l-.06.03h0Z"/>
  </g>
</svg>