<?xml version="1.0" encoding="UTF-8"?>
<svg id="Calque_2" data-name="Calque 2" xmlns="http://www.w3.org/2000/svg" viewBox="0 0 1345.66 904.55">
  <defs>
    <style>
      .cls-1 {
        fill: #1d1d1b;
        stroke-width: 0px;
      }
    </style>
  </defs>
  <g id="Calque_1-2" data-name="Calque 1">
    <path class="cls-1" d="m1.19,14.13C124.1-1.75,271.6-16.18,367.39,79.9c88.83,89.1,97.94,225.73,104.57,344.05,3.84,68.45,7.69,137.92,27.08,204.08,17.79,60.72,50.01,115.19,96.5,158.29,96.02,89.03,229.28,121.12,357.28,118.03,76.92-1.85,153.12-15.01,228.04-31.81,51.89-11.64,112.26-26.29,147.29-69.82,7.57-9.4,13.37-19.92,17.42-31.27.54-1.52-1.87-2.17-2.41-.66-19.71,55.17-80.26,78.48-132.38,92.08-72.3,18.87-147.38,32.23-221.94,37.31-132.8,9.05-272.48-15.52-377.15-102.96-49.13-41.04-85.16-93.96-105.49-154.66-22.04-65.81-27-135.8-30.96-204.62-6.7-116.38-12.09-246.47-89.33-341.2-37.64-46.17-90.32-75.16-148.17-87.61C175.65-4.23,111.08-.79,48.38,5.95c-15.75,1.69-31.48,3.64-47.19,5.67-1.57.2-1.59,2.71,0,2.5h0Z"/>
  </g>
</svg>