<?xml version="1.0" encoding="UTF-8"?>
<svg id="Calque_2" data-name="Calque 2" xmlns="http://www.w3.org/2000/svg" viewBox="0 0 1926.18 1012.36">
  <defs>
    <style>
      .cls-1 {
        fill: #1d1d1b;
        stroke-width: 0px;
      }
    </style>
  </defs>
  <g id="Calque_1-2" data-name="Calque 1">
    <path class="cls-1" d="m.62,19.35c173.46-48.24,363.19,1.64,489.81,129.59,59.46,60.08,100.76,133.35,125.94,213.75,25.96,82.89,37.7,169.33,60.75,252.97,21.27,77.19,53.91,150.13,108.38,209.72,51.43,56.27,116.79,98.44,186.69,128.08,145.38,61.65,310.52,71.58,465.08,45.11,161.26-27.61,315.6-96.72,442.25-200.49,15.97-13.09,31.46-26.74,46.51-40.87.47-.44-.24-1.15-.71-.71-122.03,114.56-275.14,194.17-438.22,231.14-157.96,35.81-329.02,33.37-482.17-22.37-73.25-26.66-142.74-66.04-199.05-120.39-60.35-58.24-98.64-131.2-122.51-211.02-24.71-82.64-36.38-168.49-60.05-251.41-22.1-77.39-56.91-149.27-109.96-210.28C402.89,45.14,233.14-18.38,66.24,4.65,43.98,7.73,22,12.37.35,18.39c-.62.17-.36,1.14.27.96h0Z"/>
  </g>
</svg>