<?xml version="1.0" encoding="UTF-8"?>
<svg id="Calque_2" data-name="Calque 2" xmlns="http://www.w3.org/2000/svg" viewBox="0 0 2330.2 611.51">
  <defs>
    <style>
      .cls-1 {
        fill: #1d1d1b;
        stroke-width: 0px;
      }
    </style>
  </defs>
  <g id="Calque_1-2" data-name="Calque 1">
    <path class="cls-1" d="m2330.16,419.27c-59.76-150.58-180.63-270.51-324.56-342.28C1846.58-2.31,1664.16-17.59,1491.29,18.51c-91.22,19.05-179.5,51.77-261.77,95.45-88.55,47.02-168.28,107.93-245.66,171.26-153.75,125.83-309.73,268.59-509.72,312.5-96.35,21.15-201.24,18.16-291.1-25.71-74.3-36.28-137.84-99.13-167.27-177.2-7.11-18.86-11.99-38.4-14.81-58.35-.09-.63-1.05-.36-.96.27,11.13,78.72,56.99,148.01,119.05,196.47,68.07,53.16,152.85,77.83,238.63,78.3,198.46,1.08,368.9-114.97,516.97-235.03,80.39-65.18,158.25-133.74,243.33-192.88,80.91-56.25,168.71-101.98,262.12-133.64,175.82-59.59,371.27-69.14,547.35-5.38,156.56,56.7,296.05,167.75,374.56,315.94,10.15,19.16,19.17,38.87,27.17,59.03.23.59,1.2.33.96-.27h0Z"/>
  </g>
</svg>